<?xml version="1.0" encoding="UTF-8"?>
<svg id="Calque_1" data-name="Calque 1" xmlns="http://www.w3.org/2000/svg" viewBox="0 0 744.54 165.84">
  <defs>
    <style>
      .cls-1 {
        fill: #ffffff;
        stroke-width: 0px;
  
      }
    </style>
  </defs>
  <path class="cls-1" d="M315.04,10.87c-.85.91-1.62,1.87-2.33,2.9M312.7,13.77c-3.76,5.45-5.54,12.56-5.54,21.37,0,23.88,12.92,35.33,43.06,35.33s43.06-11.55,43.06-35.33S380.28,0,350.23,0c-16.88,0-28.36,3.56-35.19,10.87M333.91,28.21c1.92-3.94,6.41-6.68,16.31-6.68,15.07,0,17.62,6.46,17.62,13.6s-2.64,13.8-17.62,13.8-17.62-6.46-17.62-13.8c0-2.48.3-4.87,1.3-6.92"/>
  <path class="cls-1" d="M173.39.98v68.51h-33.28l-29.56-40.42v40.42h-25.45V.98h33.28l29.56,40.42V.98h25.45Z"/>
  <path class="cls-1" d="M207.64,69.49h-25.45V.98h25.45v68.51Z"/>
  <path class="cls-1" d="M257.55,0c27.4,0,41.69,9.59,42.77,31.22h-26.03c-.98-6.46-5.97-9.69-16.74-9.69-15.07,0-17.62,6.36-17.62,13.6s2.64,13.8,17.62,13.8c10.77,0,15.76-3.33,16.74-9.88h26.03c-1.08,21.73-15.27,31.42-42.77,31.42-30.14,0-43.06-11.45-43.06-35.33S227.41,0,257.55,0Z"/>
  <path class="cls-1" d="M471.58,47.96v21.53h-70.47V.98h25.45v46.98h45.02Z"/>
  <path class="cls-1" d="M598.42,45.31c0,3.33,3.13,5.58,19.28,5.58,15.07,0,17.32-.98,17.32-3.52,0-2.94-2.25-3.33-18.3-3.82-30.93-.98-42.77-6.07-42.77-22.02,0-15.07,14.78-21.53,41.79-21.53s41.79,6.46,41.79,23.98h-25.45c0-3.62-5.87-4.4-18.3-4.4s-14.39.59-14.39,3.23,2.45,2.54,17.32,3.13c27.01,1.08,43.75,2.94,43.75,20.85,0,18.89-15.66,23.68-43.75,23.68s-43.75-4.8-43.75-25.15h25.45Z"/>
  <path class="cls-1" d="M136.07,85c27.4,0,41.69,9.59,42.77,31.22h-26.03c-.98-6.46-5.97-9.69-16.74-9.69-15.07,0-17.62,6.36-17.62,13.6s2.64,13.8,17.62,13.8c10.77,0,15.76-3.33,16.74-9.88h26.03c-1.08,21.73-15.27,31.42-42.77,31.42-30.14,0-43.06-11.45-43.06-35.33s12.92-35.14,43.06-35.14Z"/>
  <path class="cls-1" d="M264.87,165.84l-13.51-13.51c-6.07,2.06-13.6,3.13-22.61,3.13-30.14,0-43.06-11.45-43.06-35.33s12.92-35.14,43.06-35.14,43.06,11.45,43.06,35.14c0,5.48-.69,10.28-2.15,14.49l13.21,13.21-18.01,18.01ZM246.37,120.14c0-7.14-2.54-13.6-17.62-13.6s-17.62,6.36-17.62,13.6,2.64,13.8,17.62,13.8,17.62-6.56,17.62-13.8Z"/>
  <path class="cls-1" d="M324.96,155.47c-30.14,0-43.06-11.45-43.06-35.33v-34.16h25.45v34.16c0,7.34,2.64,13.8,17.62,13.8s17.62-6.56,17.62-13.8v-34.16h25.45v34.16c0,23.78-13.02,35.33-43.06,35.33Z"/>
  <path class="cls-1" d="M536.54,85.98l-28.38,68.51h-37.78l-28.38-68.51h27.99l19.28,50.89,19.28-50.89h27.99Z"/>
  <path class="cls-1" d="M368,154.49l28.38-68.51h37.78l28.38,68.51h-27.99l-19.28-50.89-19.28,50.89h-27.99Z"/>
  <path class="cls-1" d="M0,154.49l28.38-68.51h37.78l28.38,68.51h-27.99l-19.28-50.89-19.28,50.89H0Z"/>
  <path class="cls-1" d="M478,69.49L506.38.98h37.78l28.38,68.51h-27.99l-19.28-50.89-19.28,50.89h-27.99Z"/>
  <path class="cls-1" d="M650,154.49l28.38-68.51h37.78l28.38,68.51h-27.99l-19.28-50.89-19.28,50.89h-27.99Z"/>
  <path class="cls-1" d="M568.83,154.49h-25.45v-68.51h25.45v68.51Z"/>
  <path class="cls-1" d="M670.2,85.98l-28.38,68.51h-37.78l-28.38-68.51h27.99l19.28,50.89,19.28-50.89h27.99Z"/>
</svg>